<?xml version="1.0" encoding="UTF-8"?>
<!DOCTYPE svg PUBLIC "-//W3C//DTD SVG 1.1//EN" "http://www.w3.org/Graphics/SVG/1.1/DTD/svg11.dtd">
<svg xmlns="http://www.w3.org/2000/svg" version="1.1" width="74px" height="25px" style="shape-rendering:geometricPrecision; text-rendering:geometricPrecision; image-rendering:optimizeQuality; fill-rule:evenodd; clip-rule:evenodd" xmlns:xlink="http://www.w3.org/1999/xlink">
<g><path style="opacity:1" fill="#130e6b" d="M 54.5,-0.5 C 59.8333,-0.5 65.1667,-0.5 70.5,-0.5C 65.6935,2.405 60.6935,5.07167 55.5,7.5C 54.5269,5.0521 54.1936,2.38544 54.5,-0.5 Z"/></g>
<g><path style="opacity:1" fill="#f3f3f3" d="M 26.5,3.5 C 26.6657,7.84611 26.499,12.1794 26,16.5C 23.2774,13.4432 20.944,10.1099 19,6.5C 17.7365,4.39297 15.9032,3.39297 13.5,3.5C 13.5,9.16667 13.5,14.8333 13.5,20.5C 14.5,20.5 15.5,20.5 16.5,20.5C 16.3345,16.4862 16.5012,12.4862 17,8.5C 19.9454,12.7514 23.112,16.7514 26.5,20.5C 27.0906,21.1515 27.7573,21.8182 28.5,22.5C 19.1667,23.8333 9.83333,23.8333 0.5,22.5C 3.97732,21.8328 7.31066,21.1661 10.5,20.5C 8.36472,18.631 5.69805,17.9644 2.5,18.5C 2.5,16.5 2.5,14.5 2.5,12.5C 11.8333,11.8333 11.8333,11.1667 2.5,10.5C 2.5,8.83333 2.5,7.16667 2.5,5.5C 5.69805,6.03562 8.36472,5.36895 10.5,3.5C 7.31066,2.83387 3.97732,2.1672 0.5,1.5C 9.83333,0.166667 19.1667,0.166667 28.5,1.5C 27.7573,2.18185 27.0906,2.84851 26.5,3.5 Z"/></g>
<g><path style="opacity:1" fill="#cc180c" d="M 49.5,-0.5 C 50.8333,-0.5 52.1667,-0.5 53.5,-0.5C 53.5,3.16667 53.5,6.83333 53.5,10.5C 60.1667,10.5 66.8333,10.5 73.5,10.5C 73.5,11.8333 73.5,13.1667 73.5,14.5C 66.8333,14.5 60.1667,14.5 53.5,14.5C 53.5,17.8333 53.5,21.1667 53.5,24.5C 52.1667,24.5 50.8333,24.5 49.5,24.5C 49.5,20.8333 49.5,17.1667 49.5,13.5C 42.8333,13.5 36.1667,13.5 29.5,13.5C 29.5,12.5 29.5,11.5 29.5,10.5C 36.1667,10.5 42.8333,10.5 49.5,10.5C 49.5,6.83333 49.5,3.16667 49.5,-0.5 Z"/></g>
<g><path style="opacity:1" fill="#dd624f" d="M 29.5,0.5 C 33.3568,2.8392 37.3568,5.00587 41.5,7C 40.9056,7.46434 40.2389,7.63101 39.5,7.5C 36.5152,6.67433 33.8485,5.341 31.5,3.5C 30.4489,2.77765 29.7822,1.77765 29.5,0.5 Z"/></g>
<g><path style="opacity:1" fill="#000000" d="M 10.5,3.5 C 8.36472,5.36895 5.69805,6.03562 2.5,5.5C 2.5,7.16667 2.5,8.83333 2.5,10.5C 11.8333,11.1667 11.8333,11.8333 2.5,12.5C 2.5,14.5 2.5,16.5 2.5,18.5C 5.69805,17.9644 8.36472,18.631 10.5,20.5C 7.16667,20.5 3.83333,20.5 0.5,20.5C 0.5,14.8333 0.5,9.16667 0.5,3.5C 3.83333,3.5 7.16667,3.5 10.5,3.5 Z"/></g>
<g><path style="opacity:1" fill="#0e0e0e" d="M 26.5,3.5 C 27.1667,3.5 27.8333,3.5 28.5,3.5C 28.5,9.16667 28.5,14.8333 28.5,20.5C 27.8333,20.5 27.1667,20.5 26.5,20.5C 23.112,16.7514 19.9454,12.7514 17,8.5C 16.5012,12.4862 16.3345,16.4862 16.5,20.5C 15.5,20.5 14.5,20.5 13.5,20.5C 13.5,14.8333 13.5,9.16667 13.5,3.5C 15.9032,3.39297 17.7365,4.39297 19,6.5C 20.944,10.1099 23.2774,13.4432 26,16.5C 26.499,12.1794 26.6657,7.84611 26.5,3.5 Z"/></g>
<g><path style="opacity:1" fill="#c7c8c8" d="M -0.5,-0.5 C 9.5,-0.5 19.5,-0.5 29.5,-0.5C 29.5,-0.166667 29.5,0.166667 29.5,0.5C 29.7822,1.77765 30.4489,2.77765 31.5,3.5C 30.8333,3.5 30.1667,3.5 29.5,3.5C 29.1667,3.5 28.8333,3.5 28.5,3.5C 27.8333,3.5 27.1667,3.5 26.5,3.5C 27.0906,2.84851 27.7573,2.18185 28.5,1.5C 19.1667,0.166667 9.83333,0.166667 0.5,1.5C 3.97732,2.1672 7.31066,2.83387 10.5,3.5C 7.16667,3.5 3.83333,3.5 0.5,3.5C 0.5,9.16667 0.5,14.8333 0.5,20.5C 3.83333,20.5 7.16667,20.5 10.5,20.5C 7.31066,21.1661 3.97732,21.8328 0.5,22.5C 9.83333,23.8333 19.1667,23.8333 28.5,22.5C 27.7573,21.8182 27.0906,21.1515 26.5,20.5C 27.1667,20.5 27.8333,20.5 28.5,20.5C 28.8333,20.5 29.1667,20.5 29.5,20.5C 29.8333,20.5 30.1667,20.5 30.5,20.5C 30.5,21.1667 30.5,21.8333 30.5,22.5C 29.6618,22.8417 29.3284,23.5084 29.5,24.5C 19.5,24.5 9.5,24.5 -0.5,24.5C -0.5,16.1667 -0.5,7.83333 -0.5,-0.5 Z"/></g>
<g><path style="opacity:1" fill="#0c0662" d="M 73.5,2.5 C 73.5,4.5 73.5,6.5 73.5,8.5C 69.8183,8.6653 66.1516,8.49863 62.5,8C 66.2863,6.37397 69.953,4.54064 73.5,2.5 Z"/></g>
<g><path style="opacity:1" fill="#df5a46" d="M 70.5,-0.5 C 71.5,-0.5 72.5,-0.5 73.5,-0.5C 73.5,0.166667 73.5,0.833333 73.5,1.5C 68.4751,2.84509 63.8085,5.01176 59.5,8C 57.9343,8.76498 56.6009,8.59832 55.5,7.5C 60.6935,5.07167 65.6935,2.405 70.5,-0.5 Z"/></g>
<g><path style="opacity:1" fill="#f5dadb" d="M 53.5,-0.5 C 53.8333,-0.5 54.1667,-0.5 54.5,-0.5C 54.1936,2.38544 54.5269,5.0521 55.5,7.5C 56.6009,8.59832 57.9343,8.76498 59.5,8C 63.8085,5.01176 68.4751,2.84509 73.5,1.5C 73.5,1.83333 73.5,2.16667 73.5,2.5C 69.953,4.54064 66.2863,6.37397 62.5,8C 66.1516,8.49863 69.8183,8.6653 73.5,8.5C 73.5,9.16667 73.5,9.83333 73.5,10.5C 66.8333,10.5 60.1667,10.5 53.5,10.5C 53.5,6.83333 53.5,3.16667 53.5,-0.5 Z"/></g>
<g><path style="opacity:1" fill="#f0eaee" d="M 73.5,14.5 C 73.5,14.8333 73.5,15.1667 73.5,15.5C 69.9581,15.1872 66.6248,15.5206 63.5,16.5C 62.2618,15.5876 60.9285,15.4209 59.5,16C 64.0683,18.4518 68.735,20.6185 73.5,22.5C 73.5,23.1667 73.5,23.8333 73.5,24.5C 72.5,24.5 71.5,24.5 70.5,24.5C 65.3143,21.653 60.1477,18.653 55,15.5C 54.502,18.4816 54.3354,21.4816 54.5,24.5C 54.1667,24.5 53.8333,24.5 53.5,24.5C 53.5,21.1667 53.5,17.8333 53.5,14.5C 60.1667,14.5 66.8333,14.5 73.5,14.5 Z"/></g>
<g><path style="opacity:1" fill="#f3d5d4" d="M 29.5,0.5 C 29.5,0.166667 29.5,-0.166667 29.5,-0.5C 30.5,-0.5 31.5,-0.5 32.5,-0.5C 37.2796,2.39241 42.2796,5.05908 47.5,7.5C 48.48,4.91355 48.8134,2.24688 48.5,-0.5C 48.8333,-0.5 49.1667,-0.5 49.5,-0.5C 49.5,3.16667 49.5,6.83333 49.5,10.5C 42.8333,10.5 36.1667,10.5 29.5,10.5C 29.5,11.5 29.5,12.5 29.5,13.5C 36.1667,13.5 42.8333,13.5 49.5,13.5C 49.5,17.1667 49.5,20.8333 49.5,24.5C 49.1667,24.5 48.8333,24.5 48.5,24.5C 48.6646,21.4816 48.498,18.4816 48,15.5C 47.3292,16.2524 46.4959,16.5858 45.5,16.5C 44.0379,15.5291 42.7046,15.8624 41.5,17.5C 37.7099,18.8951 34.0432,20.5617 30.5,22.5C 30.5,21.8333 30.5,21.1667 30.5,20.5C 33.4734,19.0133 36.4734,17.5133 39.5,16C 36.1832,15.5017 32.8499,15.335 29.5,15.5C 29.5,17.1667 29.5,18.8333 29.5,20.5C 29.1667,20.5 28.8333,20.5 28.5,20.5C 28.5,14.8333 28.5,9.16667 28.5,3.5C 28.8333,3.5 29.1667,3.5 29.5,3.5C 29.5,5.16667 29.5,6.83333 29.5,8.5C 33.0419,8.81277 36.3752,8.47944 39.5,7.5C 40.2389,7.63101 40.9056,7.46434 41.5,7C 37.3568,5.00587 33.3568,2.8392 29.5,0.5 Z"/></g>
<g><path style="opacity:1" fill="#170f62" d="M 30.5,20.5 C 30.1667,20.5 29.8333,20.5 29.5,20.5C 29.5,18.8333 29.5,17.1667 29.5,15.5C 32.8499,15.335 36.1832,15.5017 39.5,16C 36.4734,17.5133 33.4734,19.0133 30.5,20.5 Z"/></g>
<g><path style="opacity:1" fill="#06075f" d="M 29.5,3.5 C 30.1667,3.5 30.8333,3.5 31.5,3.5C 33.8485,5.341 36.5152,6.67433 39.5,7.5C 36.3752,8.47944 33.0419,8.81277 29.5,8.5C 29.5,6.83333 29.5,5.16667 29.5,3.5 Z"/></g>
<g><path style="opacity:1" fill="#050465" d="M 32.5,-0.5 C 37.8333,-0.5 43.1667,-0.5 48.5,-0.5C 48.8134,2.24688 48.48,4.91355 47.5,7.5C 42.2796,5.05908 37.2796,2.39241 32.5,-0.5 Z"/></g>
<g><path style="opacity:1" fill="#dc7463" d="M 45.5,16.5 C 44.4324,17.4345 43.099,17.7678 41.5,17.5C 42.7046,15.8624 44.0379,15.5291 45.5,16.5 Z"/></g>
<g><path style="opacity:1" fill="#23176d" d="M 63.5,16.5 C 66.6248,15.5206 69.9581,15.1872 73.5,15.5C 73.5,17.1667 73.5,18.8333 73.5,20.5C 69.9475,19.7241 66.6142,18.3908 63.5,16.5 Z"/></g>
<g><path style="opacity:1" fill="#150c6b" d="M 48.5,24.5 C 42.5,24.5 36.5,24.5 30.5,24.5C 34.3359,22.4164 38.0026,20.083 41.5,17.5C 43.099,17.7678 44.4324,17.4345 45.5,16.5C 46.4959,16.5858 47.3292,16.2524 48,15.5C 48.498,18.4816 48.6646,21.4816 48.5,24.5 Z"/></g>
<g><path style="opacity:1" fill="#0e0666" d="M 70.5,24.5 C 65.1667,24.5 59.8333,24.5 54.5,24.5C 54.3354,21.4816 54.502,18.4816 55,15.5C 60.1477,18.653 65.3143,21.653 70.5,24.5 Z"/></g>
<g><path style="opacity:1" fill="#d33222" d="M 63.5,16.5 C 66.6142,18.3908 69.9475,19.7241 73.5,20.5C 73.5,21.1667 73.5,21.8333 73.5,22.5C 68.735,20.6185 64.0683,18.4518 59.5,16C 60.9285,15.4209 62.2618,15.5876 63.5,16.5 Z"/></g>
<g><path style="opacity:1" fill="#d63625" d="M 41.5,17.5 C 38.0026,20.083 34.3359,22.4164 30.5,24.5C 30.1667,24.5 29.8333,24.5 29.5,24.5C 29.3284,23.5084 29.6618,22.8417 30.5,22.5C 34.0432,20.5617 37.7099,18.8951 41.5,17.5 Z"/></g>
</svg>
