<?xml version="1.0" encoding="UTF-8"?>
<!DOCTYPE svg PUBLIC "-//W3C//DTD SVG 1.1//EN" "http://www.w3.org/Graphics/SVG/1.1/DTD/svg11.dtd">
<svg xmlns="http://www.w3.org/2000/svg" version="1.1" width="25px" height="17px" style="shape-rendering:geometricPrecision; text-rendering:geometricPrecision; image-rendering:optimizeQuality; fill-rule:evenodd; clip-rule:evenodd" xmlns:xlink="http://www.w3.org/1999/xlink">
<g><path style="opacity:1" fill="#262d72" d="M 14.5,-0.5 C 16.5,-0.5 18.5,-0.5 20.5,-0.5C 20.5,0.166667 20.5,0.833333 20.5,1.5C 18.7162,1.89254 17.0495,2.5592 15.5,3.5C 14.5655,2.43236 14.2322,1.09903 14.5,-0.5 Z"/></g>
<g><path style="opacity:1" fill="#d66e74" d="M 20.5,-0.5 C 21.8333,-0.5 23.1667,-0.5 24.5,-0.5C 24.5,-0.166667 24.5,0.166667 24.5,0.5C 23.1667,0.833333 21.8333,1.16667 20.5,1.5C 20.5,0.833333 20.5,0.166667 20.5,-0.5 Z"/></g>
<g><path style="opacity:1" fill="#e16f74" d="M -0.5,-0.5 C -0.166667,-0.5 0.166667,-0.5 0.5,-0.5C 2.6467,1.46955 4.98003,3.30288 7.5,5C 6.42317,5.46958 5.42317,5.30292 4.5,4.5C 2.66754,3.75152 1.00087,2.75152 -0.5,1.5C -0.5,0.833333 -0.5,0.166667 -0.5,-0.5 Z"/></g>
<g><path style="opacity:1" fill="#e6e6ed" d="M 0.5,-0.5 C 1.5,-0.5 2.5,-0.5 3.5,-0.5C 4.91417,1.05419 6.58083,2.38752 8.5,3.5C 9.42869,2.31116 9.76202,0.977822 9.5,-0.5C 9.83333,-0.5 10.1667,-0.5 10.5,-0.5C 10.5,1.83333 10.5,4.16667 10.5,6.5C 6.83333,6.5 3.16667,6.5 -0.5,6.5C -0.5,6.16667 -0.5,5.83333 -0.5,5.5C 1.41467,5.78448 3.08134,5.45115 4.5,4.5C 5.42317,5.30292 6.42317,5.46958 7.5,5C 4.98003,3.30288 2.6467,1.46955 0.5,-0.5 Z"/></g>
<g><path style="opacity:1" fill="#011963" d="M 3.5,-0.5 C 5.5,-0.5 7.5,-0.5 9.5,-0.5C 9.76202,0.977822 9.42869,2.31116 8.5,3.5C 6.58083,2.38752 4.91417,1.05419 3.5,-0.5 Z"/></g>
<g><path style="opacity:1" fill="#314986" d="M -0.5,1.5 C 1.00087,2.75152 2.66754,3.75152 4.5,4.5C 3.08134,5.45115 1.41467,5.78448 -0.5,5.5C -0.5,4.16667 -0.5,2.83333 -0.5,1.5 Z"/></g>
<g><path style="opacity:1" fill="#344783" d="M 24.5,1.5 C 24.5,2.83333 24.5,4.16667 24.5,5.5C 18.399,5.48238 18.399,4.14905 24.5,1.5 Z"/></g>
<g><path style="opacity:1" fill="#f2ebef" d="M 13.5,-0.5 C 13.8333,-0.5 14.1667,-0.5 14.5,-0.5C 14.2322,1.09903 14.5655,2.43236 15.5,3.5C 14.537,4.3635 14.537,5.03017 15.5,5.5C 17.7855,4.8671 19.4522,3.53377 20.5,1.5C 21.8333,1.16667 23.1667,0.833333 24.5,0.5C 24.5,0.833333 24.5,1.16667 24.5,1.5C 18.399,4.14905 18.399,5.48238 24.5,5.5C 24.5,5.83333 24.5,6.16667 24.5,6.5C 20.8333,6.5 17.1667,6.5 13.5,6.5C 13.5,4.16667 13.5,1.83333 13.5,-0.5 Z"/></g>
<g><path style="opacity:1" fill="#e25f5f" d="M 20.5,1.5 C 19.4522,3.53377 17.7855,4.8671 15.5,5.5C 14.537,5.03017 14.537,4.3635 15.5,3.5C 17.0495,2.5592 18.7162,1.89254 20.5,1.5 Z"/></g>
<g><path style="opacity:1" fill="#ca1d2f" d="M 10.5,-0.5 C 11.5,-0.5 12.5,-0.5 13.5,-0.5C 13.5,1.83333 13.5,4.16667 13.5,6.5C 17.1667,6.5 20.8333,6.5 24.5,6.5C 24.5,7.5 24.5,8.5 24.5,9.5C 20.8333,9.5 17.1667,9.5 13.5,9.5C 13.5,11.8333 13.5,14.1667 13.5,16.5C 12.5,16.5 11.5,16.5 10.5,16.5C 10.5,14.1667 10.5,11.8333 10.5,9.5C 6.83333,9.5 3.16667,9.5 -0.5,9.5C -0.5,8.5 -0.5,7.5 -0.5,6.5C 3.16667,6.5 6.83333,6.5 10.5,6.5C 10.5,4.16667 10.5,1.83333 10.5,-0.5 Z"/></g>
<g><path style="opacity:1" fill="#eae3ea" d="M -0.5,10.5 C -0.5,10.1667 -0.5,9.83333 -0.5,9.5C 3.16667,9.5 6.83333,9.5 10.5,9.5C 10.5,11.8333 10.5,14.1667 10.5,16.5C 10.1667,16.5 9.83333,16.5 9.5,16.5C 9.76781,14.901 9.43448,13.5676 8.5,12.5C 9.96873,10.8947 9.6354,10.3947 7.5,11C 4.98003,12.6971 2.6467,14.5305 0.5,16.5C 0.166667,16.5 -0.166667,16.5 -0.5,16.5C -0.5,15.8333 -0.5,15.1667 -0.5,14.5C 5.60103,11.851 5.60103,10.5176 -0.5,10.5 Z"/></g>
<g><path style="opacity:1" fill="#e3e3eb" d="M 24.5,9.5 C 24.5,9.83333 24.5,10.1667 24.5,10.5C 22.5853,10.2155 20.9187,10.5489 19.5,11.5C 18.5768,10.6971 17.5768,10.5304 16.5,11C 19.02,12.6971 21.3533,14.5305 23.5,16.5C 22.5,16.5 21.5,16.5 20.5,16.5C 19.0858,14.9458 17.4192,13.6125 15.5,12.5C 14.5713,13.6888 14.238,15.0222 14.5,16.5C 14.1667,16.5 13.8333,16.5 13.5,16.5C 13.5,14.1667 13.5,11.8333 13.5,9.5C 17.1667,9.5 20.8333,9.5 24.5,9.5 Z"/></g>
<g><path style="opacity:1" fill="#202d71" d="M -0.5,10.5 C 5.60103,10.5176 5.60103,11.851 -0.5,14.5C -0.5,13.1667 -0.5,11.8333 -0.5,10.5 Z"/></g>
<g><path style="opacity:1" fill="#313f7f" d="M 19.5,11.5 C 20.9187,10.5489 22.5853,10.2155 24.5,10.5C 24.5,11.8333 24.5,13.1667 24.5,14.5C 22.6675,13.7515 21.0009,12.7515 19.5,11.5 Z"/></g>
<g><path style="opacity:1" fill="#df595d" d="M 19.5,11.5 C 21.0009,12.7515 22.6675,13.7515 24.5,14.5C 24.5,15.1667 24.5,15.8333 24.5,16.5C 24.1667,16.5 23.8333,16.5 23.5,16.5C 21.3533,14.5305 19.02,12.6971 16.5,11C 17.5768,10.5304 18.5768,10.6971 19.5,11.5 Z"/></g>
<g><path style="opacity:1" fill="#e56d6c" d="M 8.5,12.5 C 6.24602,13.1237 4.57935,14.457 3.5,16.5C 2.5,16.5 1.5,16.5 0.5,16.5C 2.6467,14.5305 4.98003,12.6971 7.5,11C 9.6354,10.3947 9.96873,10.8947 8.5,12.5 Z"/></g>
<g><path style="opacity:1" fill="#0c1f68" d="M 8.5,12.5 C 9.43448,13.5676 9.76781,14.901 9.5,16.5C 7.5,16.5 5.5,16.5 3.5,16.5C 4.57935,14.457 6.24602,13.1237 8.5,12.5 Z"/></g>
<g><path style="opacity:1" fill="#021963" d="M 20.5,16.5 C 18.5,16.5 16.5,16.5 14.5,16.5C 14.238,15.0222 14.5713,13.6888 15.5,12.5C 17.4192,13.6125 19.0858,14.9458 20.5,16.5 Z"/></g>
</svg>
