<?xml version="1.0" encoding="UTF-8"?>
<!DOCTYPE svg PUBLIC "-//W3C//DTD SVG 1.1//EN" "http://www.w3.org/Graphics/SVG/1.1/DTD/svg11.dtd">
<svg xmlns="http://www.w3.org/2000/svg" version="1.1" width="74px" height="25px" style="shape-rendering:geometricPrecision; text-rendering:geometricPrecision; image-rendering:optimizeQuality; fill-rule:evenodd; clip-rule:evenodd" xmlns:xlink="http://www.w3.org/1999/xlink">
<g><path style="opacity:1" fill="#c8c9c9" d="M -0.5,-0.5 C 9.5,-0.5 19.5,-0.5 29.5,-0.5C 29.5,-0.166667 29.5,0.166667 29.5,0.5C 19.4422,-0.140003 9.77549,0.526663 0.5,2.5C 0.5,3.5 0.5,4.5 0.5,5.5C 0.5,11.5 0.5,17.5 0.5,23.5C 10.1667,23.5 19.8333,23.5 29.5,23.5C 29.5,23.8333 29.5,24.1667 29.5,24.5C 19.5,24.5 9.5,24.5 -0.5,24.5C -0.5,16.1667 -0.5,7.83333 -0.5,-0.5 Z"/></g>
<g><path style="opacity:1" fill="#e10b16" d="M 29.5,-0.5 C 44.1667,-0.5 58.8333,-0.5 73.5,-0.5C 73.5,7.83333 73.5,16.1667 73.5,24.5C 58.8333,24.5 44.1667,24.5 29.5,24.5C 29.5,24.1667 29.5,23.8333 29.5,23.5C 29.5,15.8333 29.5,8.16667 29.5,0.5C 29.5,0.166667 29.5,-0.166667 29.5,-0.5 Z"/></g>
<g><path style="opacity:1" fill="#f9f9f9" d="M 29.5,0.5 C 29.5,8.16667 29.5,15.8333 29.5,23.5C 19.8333,23.5 10.1667,23.5 0.5,23.5C 0.5,17.5 0.5,11.5 0.5,5.5C 2.16667,5.5 3.83333,5.5 5.5,5.5C 6.16667,25.5 6.83333,25.5 7.5,5.5C 9.16667,5.5 10.8333,5.5 12.5,5.5C 12.5,4.5 12.5,3.5 12.5,2.5C 8.5,2.5 4.5,2.5 0.5,2.5C 9.77549,0.526663 19.4422,-0.140003 29.5,0.5 Z"/></g>
<g><path style="opacity:1" fill="#1a1a1a" d="M 0.5,2.5 C 4.5,2.5 8.5,2.5 12.5,2.5C 12.5,3.5 12.5,4.5 12.5,5.5C 10.8333,5.5 9.16667,5.5 7.5,5.5C 6.83333,25.5 6.16667,25.5 5.5,5.5C 3.83333,5.5 2.16667,5.5 0.5,5.5C 0.5,4.5 0.5,3.5 0.5,2.5 Z"/></g>
<g><path style="opacity:1" fill="#1c1c1c" d="M 14.5,2.5 C 17.5184,2.33537 20.5184,2.50204 23.5,3C 27.3011,6.37557 27.3011,9.87557 23.5,13.5C 25.2877,15.5765 26.9544,17.7432 28.5,20C 27.5,20.6667 26.5,20.6667 25.5,20C 23.5555,16.5498 20.8889,14.0498 17.5,12.5C 17.5,15.1667 17.5,17.8333 17.5,20.5C 16.5,20.5 15.5,20.5 14.5,20.5C 14.5,14.5 14.5,8.5 14.5,2.5 Z"/></g>
<g><path style="opacity:1" fill="#fdfdfd" d="M 17.5,5.5 C 19.5,5.5 21.5,5.5 23.5,5.5C 23.938,9.90825 21.938,11.5749 17.5,10.5C 17.5,8.83333 17.5,7.16667 17.5,5.5 Z"/></g>
<g><path style="opacity:1" fill="#efd2d1" d="M 52.5,8.5 C 53.766,9.0899 55.0993,9.5899 56.5,10C 55.1667,11 55.1667,12 56.5,13C 55.0692,13.4652 53.9025,14.2986 53,15.5C 52.6824,13.9391 51.8491,12.7724 50.5,12C 51.9733,11.2904 52.6399,10.1238 52.5,8.5 Z"/></g>
<g><path style="opacity:1" fill="#eee9e9" d="M 40.5,4.5 C 42.8568,4.33669 45.1902,4.50335 47.5,5C 40.7327,5.43575 38.2327,8.93575 40,15.5C 41.8873,17.886 44.3873,19.0527 47.5,19C 39.8784,20.3781 36.3784,17.2115 37,9.5C 37.9973,7.67694 39.1639,6.01027 40.5,4.5 Z"/></g>
</svg>
