<?xml version="1.0" encoding="UTF-8"?>
<!DOCTYPE svg PUBLIC "-//W3C//DTD SVG 1.1//EN" "http://www.w3.org/Graphics/SVG/1.1/DTD/svg11.dtd">
<svg xmlns="http://www.w3.org/2000/svg" version="1.1" width="24px" height="17px" style="shape-rendering:geometricPrecision; text-rendering:geometricPrecision; image-rendering:optimizeQuality; fill-rule:evenodd; clip-rule:evenodd" xmlns:xlink="http://www.w3.org/1999/xlink">
<g><path style="opacity:1" fill="#e20f17" d="M -0.5,-0.5 C 7.5,-0.5 15.5,-0.5 23.5,-0.5C 23.5,5.16667 23.5,10.8333 23.5,16.5C 15.5,16.5 7.5,16.5 -0.5,16.5C -0.5,10.8333 -0.5,5.16667 -0.5,-0.5 Z"/></g>
<g><path style="opacity:1" fill="#fef2f2" d="M 6.5,3.5 C 7.55198,3.35055 8.55198,3.51722 9.5,4C 4.16667,6.66667 4.16667,9.33333 9.5,12C 6.41195,12.5879 4.74529,11.2545 4.5,8C 4.51857,6.16698 5.18523,4.66698 6.5,3.5 Z"/></g>
<g><path style="opacity:1" fill="#fbcdcd" d="M 12.5,6.5 C 14.4646,6.94835 14.7979,7.94835 13.5,9.5C 11.4807,8.86709 11.1474,7.86709 12.5,6.5 Z"/></g>
</svg>
